<svg width="47" height="47" viewBox="0 0 47 47" fill="none" xmlns="http://www.w3.org/2000/svg">
<path d="M23.0181 13.7971C17.9154 13.7971 13.7974 17.9152 13.7974 23.0178C13.7974 28.1205 17.9154 32.2386 23.0181 32.2386C28.1207 32.2386 32.2388 28.1205 32.2388 23.0178C32.2388 17.9152 28.1207 13.7971 23.0181 13.7971ZM23.0181 29.0106C19.7182 29.0106 17.0253 26.3177 17.0253 23.0178C17.0253 19.718 19.7182 17.025 23.0181 17.025C26.3179 17.025 29.0109 19.718 29.0109 23.0178C29.0109 26.3177 26.3179 29.0106 23.0181 29.0106ZM32.6165 11.2705C31.4251 11.2705 30.463 12.2326 30.463 13.424C30.463 14.6153 31.4251 15.5774 32.6165 15.5774C33.8078 15.5774 34.7699 14.6198 34.7699 13.424C34.7703 13.1411 34.7148 12.8609 34.6067 12.5995C34.4986 12.338 34.34 12.1005 34.14 11.9004C33.9399 11.7004 33.7024 11.5418 33.441 11.4337C33.1795 11.3256 32.8993 11.2702 32.6165 11.2705Z" fill="#404040"/>
<path d="M40.9919 23.0181C40.9919 20.5364 41.0144 18.0773 40.875 15.6001C40.7356 12.7229 40.0793 10.1693 37.9753 8.0653C35.8668 5.95681 33.3177 5.30493 30.4404 5.16556C27.9588 5.02619 25.4996 5.04867 23.0225 5.04867C20.5409 5.04867 18.0817 5.02619 15.6046 5.16556C12.7273 5.30493 10.1737 5.9613 8.06972 8.0653C5.96123 10.1738 5.30935 12.7229 5.16998 15.6001C5.03062 18.0818 5.0531 20.5409 5.0531 23.0181C5.0531 25.4952 5.03062 27.9589 5.16998 30.436C5.30935 33.3133 5.96573 35.8668 8.06972 37.9708C10.1782 40.0793 12.7273 40.7312 15.6046 40.8706C18.0862 41.0099 20.5453 40.9875 23.0225 40.9875C25.5041 40.9875 27.9633 41.0099 30.4404 40.8706C33.3177 40.7312 35.8713 40.0748 37.9753 37.9708C40.0838 35.8623 40.7356 33.3133 40.875 30.436C41.0189 27.9589 40.9919 25.4997 40.9919 23.0181ZM37.0357 33.619C36.7075 34.4372 36.3118 35.0486 35.6779 35.678C35.044 36.3119 34.4371 36.7075 33.6189 37.0357C31.2542 37.9753 25.639 37.764 23.018 37.764C20.397 37.764 14.7773 37.9753 12.4126 37.0402C11.5944 36.712 10.983 36.3164 10.3535 35.6825C9.71965 35.0486 9.32403 34.4417 8.99584 33.6235C8.06073 31.2542 8.27203 25.6391 8.27203 23.0181C8.27203 20.3971 8.06073 14.7774 8.99584 12.4127C9.32403 11.5944 9.71965 10.983 10.3535 10.3536C10.9874 9.72422 11.5944 9.3241 12.4126 8.99591C14.7773 8.0608 20.397 8.2721 23.018 8.2721C25.639 8.2721 31.2587 8.0608 33.6234 8.99591C34.4416 9.3241 35.053 9.71972 35.6824 10.3536C36.3163 10.9875 36.712 11.5944 37.0401 12.4127C37.9753 14.7774 37.764 20.3971 37.764 23.0181C37.764 25.6391 37.9753 31.2542 37.0357 33.619Z" fill="#404040"/>
</svg>
