<svg xmlns="http://www.w3.org/2000/svg" width="1em" height="1em" viewBox="0 0 48 48"><g fill="none"><path d="M0 0h48v48H0z"/><path fill="#008dda" fill-rule="evenodd" d="M6 9a3 3 0 0 1 3-3h30a3 3 0 0 1 3 3v30a3 3 0 0 1-3 3H9a3 3 0 0 1-3-3zm13 3h-3a2 2 0 0 0-2 2v22a2 2 0 0 0 2 2h16a2 2 0 0 0 2-2V14a2 2 0 0 0-2-2h-3a2 2 0 0 0-2-2h-6a2 2 0 0 0-2 2m3.064 22.649L24.557 28H21a1 1 0 0 1 0-2h10.301a1 1 0 1 1 0 2h-2.858l2.493 6.649a1 1 0 1 1-1.872.702l-1.259-3.355h-2.61l-1.259 3.355a1 1 0 1 1-1.872-.702M17 19.24h14v-2H17zm5 4.16h-5v-2h5zm4.5 1.6a2 2 0 1 0 0-4a2 2 0 0 0 0 4M21 12h6v2h-6z" clip-rule="evenodd"/></g></svg>