<svg width="37" height="36" viewBox="0 0 37 36" fill="none" xmlns="http://www.w3.org/2000/svg">
<path d="M18.5 0C8.28371 0 0 8.05982 0 18C0 27.9402 8.28371 36 18.5 36C28.7163 36 37 27.9402 37 18C37 8.05982 28.7163 0 18.5 0ZM27.3907 13.5683C27.4031 13.7571 27.4031 13.954 27.4031 14.1469C27.4031 20.0451 22.7864 26.8393 14.3499 26.8393C11.7483 26.8393 9.33672 26.104 7.30502 24.8384C7.67667 24.8786 8.03181 24.8946 8.41172 24.8946C10.559 24.8946 12.5329 24.1875 14.1062 22.9902C12.0911 22.95 10.398 21.6643 9.81987 19.8964C10.526 19.9969 11.1619 19.9969 11.8887 19.8161C10.8511 19.611 9.91846 19.0627 9.24924 18.2643C8.58003 17.466 8.21551 16.4668 8.21763 15.4366V15.3804C8.82467 15.7138 9.53906 15.9187 10.2865 15.9469C9.65817 15.5394 9.14287 14.9875 8.78631 14.3399C8.42974 13.6923 8.24292 12.969 8.24241 12.2344C8.24241 11.4027 8.4654 10.6433 8.86596 9.98438C10.0177 11.3639 11.4548 12.4921 13.0841 13.2958C14.7133 14.0994 16.4981 14.5605 18.3224 14.6491C17.6741 11.6156 20.0031 9.16071 22.8029 9.16071C24.1243 9.16071 25.3136 9.69911 26.1519 10.567C27.1884 10.3781 28.1795 10.0004 29.0632 9.4942C28.7204 10.5268 28.0019 11.3987 27.048 11.9491C27.973 11.8527 28.865 11.6036 29.6908 11.254C29.0673 12.146 28.2868 12.9375 27.3907 13.5683Z" fill="#404040"/>
</svg>
